<?xml version="1.0" encoding="utf-8"?>
<!-- Generator: Adobe Illustrator 15.0.0, SVG Export Plug-In . SVG Version: 6.00 Build 0)  -->
<!DOCTYPE svg PUBLIC "-//W3C//DTD SVG 1.1//EN" "http://www.w3.org/Graphics/SVG/1.1/DTD/svg11.dtd">
<svg version="1.1" id="Calque_1" xmlns="http://www.w3.org/2000/svg" xmlns:xlink="http://www.w3.org/1999/xlink" x="0px" y="0px"
	 width="300px" height="350px" viewBox="0 0 300 350" enable-background="new 0 0 300 350" xml:space="preserve">
<polygon fill="#FFFFFF" stroke="#FFFFFF" stroke-width="14" stroke-miterlimit="10" points="236.006,290.138 268.043,318 233,333 
	215.588,304.325 "/>
<ellipse fill="none" stroke="#FFFFFF" stroke-width="14" stroke-miterlimit="10" cx="150.191" cy="168.5" rx="134.809" ry="152.5"/>
<path fill="none" stroke="#FFFFFF" stroke-width="14" stroke-miterlimit="10" d="M143.753,93.944
	c0,28.545-23.141,51.686-51.686,51.686s-51.686-23.141-51.686-51.686c0-26.777,20.363-48.799,46.45-51.423
	c1.721-0.173,3.468-0.262,5.235-0.262C120.612,42.258,143.753,65.399,143.753,93.944z"/>
<circle fill="#FFFFFF" cx="91.876" cy="93.449" r="22.472"/>
<circle fill="none" stroke="#FFFFFF" stroke-width="14" stroke-miterlimit="10" cx="208.067" cy="93.944" r="51.686"/>
<circle fill="#FFFFFF" cx="207.876" cy="93.449" r="22.472"/>
<path fill="none" stroke="#FFFFFF" stroke-width="14" stroke-miterlimit="10" d="M174.752,131c0,0-3.999,20.949-8.666,28.449
	C161.419,166.947,149.031,176,149.031,176s-12.364-9.053-17.031-16.551c-4.667-7.5-8.666-28.449-8.666-28.449"/>
<g>
	<path fill="#FFFFFF" d="M271.043,15.5c-4.285,3.23-8.688,6.291-13.19,9.202c-4.497,2.926-9.087,5.708-13.819,8.333
		c-2.371,1.308-4.785,2.554-7.279,3.746c-2.488,1.179-5.112,2.296-7.999,3.142c-5.235,1.581-10.539,2.848-15.864,3.933
		c-5.329,1.066-10.682,1.958-16.051,2.647c-5.365,0.733-10.748,1.239-16.132,1.663c-5.385,0.431-10.776,0.646-16.172,0.824
		c-2.698,0.084-5.397,0.091-8.102,0.1c-2.724-0.001-5.369-0.02-8.199-0.099l0.265-13.988l0.543-0.002l0.265,13.993
		c-2.83,0.083-5.477,0.098-8.201,0.1c-2.705-0.005-5.405-0.023-8.104-0.092c-5.396-0.175-10.79-0.401-16.176-0.819
		c-10.769-0.832-21.532-2.149-32.191-4.31c-5.328-1.078-10.632-2.358-15.869-3.933c-2.895-0.849-5.514-1.974-8.005-3.152
		c-2.494-1.196-4.906-2.448-7.277-3.757c-4.73-2.635-9.317-5.425-13.81-8.361c-4.498-2.92-8.895-5.992-13.174-9.234
		c10.03,3.792,19.909,7.809,29.813,11.335c2.471,0.877,4.938,1.732,7.393,2.469c2.461,0.735,4.855,1.423,7.146,1.751
		c5.112,0.836,10.267,1.484,15.442,2.012c10.354,1.032,20.783,1.63,31.232,1.929c5.225,0.14,10.454,0.268,15.683,0.251
		c5.199,0.032,10.515,0.007,15.57-0.177l0.265,13.993l-0.543-0.002l0.265-13.988c5.054,0.191,10.368,0.202,15.566,0.186
		c5.228,0.019,10.455-0.119,15.68-0.246c10.447-0.306,20.876-0.884,31.229-1.925c5.176-0.519,10.327-1.18,15.44-2.009
		c2.297-0.329,4.687-1.019,7.152-1.748c2.456-0.735,4.922-1.591,7.395-2.462C251.133,23.288,261.014,19.283,271.043,15.5z"/>
</g>
</svg>
